<svg xmlns="http://www.w3.org/2000/svg" viewBox="0 0 571.06 370.07"><defs><style>.cls-1{fill:#13313c;}.cls-2{fill:#a8854a;}</style></defs><title>AllanNoyes</title><g id="Layer_2" data-name="Layer 2"><g id="Layer_1-2" data-name="Layer 1"><path class="cls-1" d="M75.74,169.29H47.9V120.13H27.84v49.16H0V17.3C0,7.27,7,0,17.05,0H58.44c10.28,0,17.3,7.27,17.3,17.3ZM47.9,96.81V28.34a3.49,3.49,0,0,0-3.51-3.76h-13a3.49,3.49,0,0,0-3.51,3.76V96.81Z"/><path class="cls-1" d="M116.37,0h28.09V144.21h32.6v25.08H116.37Z"/><path class="cls-1" d="M206.91,0H235V144.21H267.6v25.08H206.91Z"/><path class="cls-2" d="M379,169.29H351.11V120.13H331.05v49.16H303.21V17.3c0-10,7-17.3,17.06-17.3h41.38C371.93,0,379,7.27,379,17.3ZM351.11,96.81V28.34a3.49,3.49,0,0,0-3.51-3.76h-13a3.49,3.49,0,0,0-3.51,3.76V96.81Z"/><path class="cls-2" d="M443.41,74v95.31H419.58V0h23.57l32.11,101.82V0h23.82V169.29H475.76Z"/><path class="cls-1" d="M93.3,273.52v95.3H69.47V199.53H93.05l32.1,101.83V199.53H149V368.82H125.65Z"/><path class="cls-1" d="M250.29,198c10,0,17.31,7.27,17.31,17.3V352.77c0,10-7.28,17.3-17.31,17.3H206.9c-10.28,0-17.3-7.27-17.3-17.3V215.33c0-10,7-17.3,17.3-17.3Zm-11,26.33c0-1.5-1-2.76-1.51-2.76H219.19c-1.25,0-1.25,1.76-1.25,2.76V343.49c0,.75.25,2.26,1.25,2.26h18.56a2.35,2.35,0,0,0,1.51-2.26Z"/><path class="cls-2" d="M355.63,316.65v52.17H327.79V316.65h-4c-12.54,0-20.57-7.77-20.57-20.06V199.53H331.3v90.29a2.74,2.74,0,0,0,2,2.51h17.8c1,0,1-1.26,1-2.51V199.53H380.2v97.06c0,12.29-8,20.06-20.81,20.06Z"/><path class="cls-2" d="M417.32,199.53h62.45v24.33H445.66v47.65H473.5v23.58H445.66v49.4h34.11v24.33H417.32Z"/><path class="cls-2" d="M508.11,343.49H541c1.51,0,2-1,2-2.26V298.85c0-1.26-.5-2.26-2-2.26h-15.8c-10,0-17-7.27-17-17.3V216.84c0-10,7-17.31,17-17.31h44.39v24.33H537.7c-1,0-1.75,1.26-1.75,2.76V268c0,1,.75,2.26,1.75,2.26h16c10,0,17.31,7.27,17.31,17.3v64c0,10-7.27,17.3-17.31,17.3H508.11Z"/></g></g></svg>